<?xml version="1.0" standalone="no"?>
<!DOCTYPE svg PUBLIC "-//W3C//DTD SVG 20010904//EN"
 "http://www.w3.org/TR/2001/REC-SVG-20010904/DTD/svg10.dtd">
<svg version="1.0" xmlns="http://www.w3.org/2000/svg"
 width="200.000000pt" height="200.000000pt" viewBox="0 0 200.000000 200.000000"
 preserveAspectRatio="xMidYMid meet">

<g transform="translate(0.000000,200.000000) scale(0.100000,-0.100000)"
fill="#000000" stroke="none">
<path d="M1091 1114 c0 -11 3 -14 6 -6 3 7 2 16 -1 19 -3 4 -6 -2 -5 -13z"/>
<path d="M1918 1033 c-16 -4 -18 -18 -18 -104 0 -92 1 -99 20 -99 19 0 20 7
20 105 0 58 -1 104 -2 104 -2 -1 -11 -3 -20 -6z"/>
<path d="M503 1018 c2 -7 10 -13 17 -13 7 0 15 6 18 13 2 7 -5 12 -18 12 -13
0 -20 -5 -17 -12z"/>
<path d="M832 1018 c7 -19 38 -22 38 -4 0 10 -9 16 -21 16 -12 0 -19 -5 -17
-12z"/>
<path d="M128 1003 c-2 -10 8 -53 22 -95 21 -64 29 -78 46 -78 21 0 20 3 -15
95 -36 95 -46 110 -53 78z"/>
<path d="M1158 1009 c-31 -18 -21 -53 28 -97 36 -32 44 -45 39 -61 -7 -23 4
-28 23 -9 25 25 13 57 -34 91 -39 27 -45 36 -42 59 3 16 4 28 4 28 -1 0 -9 -5
-18 -11z"/>
<path d="M400 921 c0 -58 4 -82 15 -91 9 -7 17 -11 18 -9 1 2 1 43 -1 92 -3
67 -7 87 -18 87 -11 0 -14 -17 -14 -79z"/>
<path d="M730 921 c0 -58 4 -82 15 -91 9 -7 17 -11 18 -9 1 2 1 43 -1 92 -3
67 -7 87 -18 87 -11 0 -14 -17 -14 -79z"/>
<path d="M336 954 c-9 -22 -8 -24 9 -24 8 0 15 6 15 14 0 22 -17 28 -24 10z"/>
<path d="M1728 900 c3 -63 6 -70 24 -70 19 0 20 4 15 61 -5 54 -16 78 -37 79
-3 0 -4 -31 -2 -70z"/>
<path d="M1833 944 c-21 -21 -24 -32 -19 -62 3 -20 13 -43 23 -49 24 -18 38
-16 23 3 -8 8 -13 35 -13 59 0 24 5 51 13 59 20 26 1 18 -27 -10z"/>
<path d="M265 895 c0 -55 3 -65 18 -65 14 0 17 10 17 65 0 55 -3 65 -17 65
-15 0 -18 -10 -18 -65z"/>
<path d="M505 895 c0 -55 3 -65 18 -65 14 0 17 10 17 65 0 55 -3 65 -17 65
-15 0 -18 -10 -18 -65z"/>
<path d="M597 953 c-16 -15 -5 -43 24 -64 23 -16 30 -28 26 -45 -3 -20 -1 -22
14 -13 27 14 23 41 -11 74 -16 16 -30 35 -30 42 0 14 -12 17 -23 6z"/>
<path d="M835 895 c0 -55 3 -65 18 -65 14 0 17 10 17 65 0 55 -3 65 -17 65
-15 0 -18 -10 -18 -65z"/>
<path d="M930 941 c-18 -35 -12 -88 12 -105 28 -20 39 -20 63 -2 19 13 18 14
-6 9 -37 -7 -53 18 -47 72 6 47 -4 59 -22 26z"/>
<path d="M1001 946 c-9 -10 -9 -16 -1 -21 16 -10 31 7 21 23 -6 10 -10 10 -20
-2z"/>
<path d="M1310 941 c-18 -35 -6 -111 18 -111 4 0 7 29 7 65 0 67 -7 79 -25 46z"/>
<path d="M1388 905 c3 -36 -1 -61 -10 -72 -12 -15 -11 -15 9 -5 29 16 35 27
35 68 0 32 -15 64 -31 64 -3 0 -4 -25 -3 -55z"/>
<path d="M1470 900 c0 -48 4 -61 19 -70 26 -14 38 -13 23 2 -7 7 -12 38 -12
70 0 45 -3 58 -15 58 -12 0 -15 -13 -15 -60z"/>
<path d="M1550 895 c0 -58 2 -65 20 -65 18 0 20 7 20 65 0 58 -2 65 -20 65
-18 0 -20 -7 -20 -65z"/>
<path d="M1650 895 c0 -51 3 -65 15 -65 12 0 15 14 15 65 0 51 -3 65 -15 65
-12 0 -15 -14 -15 -65z"/>
<path d="M1130 839 c0 -5 5 -7 10 -4 6 3 10 8 10 11 0 2 -4 4 -10 4 -5 0 -10
-5 -10 -11z"/>
</g>
</svg>
